<?xml version="1.0" encoding="utf-8"?>
<!-- Generator: Adobe Illustrator 22.1.0, SVG Export Plug-In . SVG Version: 6.00 Build 0)  -->
<svg version="1.1" id="medialab-logo-svg" xmlns="http://www.w3.org/2000/svg" xmlns:xlink="http://www.w3.org/1999/xlink" x="0px" y="0px"
	 viewBox="0 0 283.5 72.6" style="enable-background:new 0 0 283.5 72.6; fill: #e6142d;" xml:space="preserve" aria-hidden="true">
	 <title>Sciences Po | médialab</title>
   	<desc>Logo of Sciences Po médialab</desc>
<g>
	<path class="st0" d="M4.2,32.7c0,0,4.7,4.5,10.7,4.5c3.3,0,6.2-1.7,6.2-5.2c0-7.7-20.3-6.4-20.3-19.6C0.9,5.3,7.1,0,15.3,0
		c8.5,0,12.8,4.6,12.8,4.6L24.8,11c0,0-4.1-3.8-9.5-3.8c-3.6,0-6.5,2.1-6.5,5.1C8.8,20,29,18.1,29,31.9c0,6.8-5.2,12.6-14.2,12.6
		C5.3,44.5,0,38.6,0,38.6L4.2,32.7z"/>
	<path class="st0" d="M47.1,15.2c7.3,0,10.7,4.1,10.7,4.1l-3.1,4.7c0,0-2.9-3-7.3-3c-5.1,0-8.5,3.9-8.5,8.6c0,4.7,3.4,8.7,8.7,8.7
		c4.7,0,8.2-3.5,8.2-3.5l2.7,4.9c0,0-4,4.5-11.5,4.5c-9.2,0-15.1-6.5-15.1-14.6C32,21.9,37.9,15.2,47.1,15.2"/>
	<path class="st0" d="M62.6,5h6.9v6.2h-6.9V5z M62.6,15.9h6.9v27.8h-6.9V15.9z"/>
	<path class="st0" d="M88.3,15.2c8,0,12.3,5.8,12.3,13.2c0,0.8-0.2,2.7-0.2,2.7H81.3c0.4,4.9,4.2,7.4,8.4,7.4c4.5,0,8-3.1,8-3.1
		l2.7,5c0,0-4.3,4-11.2,4c-9.2,0-15-6.7-15-14.6C74.2,21.2,80,15.2,88.3,15.2 M93.7,26.4c-0.1-3.8-2.5-5.8-5.5-5.8
		c-3.5,0-6,2.2-6.7,5.8H93.7z"/>
	<path class="st0" d="M105.3,15.9h6.7v3.2c0,1-0.1,1.9-0.1,1.9h0.1c1.2-2.3,4.3-5.8,9.9-5.8c6.2,0,9.7,3.2,9.7,10.6v17.9h-6.9V27.2
		c0-3.4-0.9-5.7-4.4-5.7c-3.7,0-6.4,2.3-7.5,5.7c-0.4,1.1-0.5,2.4-0.5,3.7v12.8h-6.9L105.3,15.9L105.3,15.9z"/>
	<path class="st0" d="M150.8,15.2c7.3,0,10.7,4.1,10.7,4.1l-3.1,4.7c0,0-2.9-3-7.3-3c-5.1,0-8.5,3.9-8.5,8.6c0,4.7,3.4,8.7,8.7,8.7
		c4.7,0,8.2-3.5,8.2-3.5l2.7,4.9c0,0-4,4.5-11.5,4.5c-9.2,0-15.1-6.5-15.1-14.6C135.6,21.9,141.5,15.2,150.8,15.2"/>
	<path class="st0" d="M178.5,15.2c8,0,12.3,5.8,12.3,13.2c0,0.8-0.2,2.7-0.2,2.7h-19.2c0.4,4.9,4.2,7.4,8.4,7.4c4.5,0,8-3.1,8-3.1
		l2.7,5c0,0-4.3,4-11.2,4c-9.2,0-15-6.7-15-14.6C164.4,21.2,170.2,15.2,178.5,15.2 M183.8,26.4c-0.1-3.8-2.5-5.8-5.5-5.8
		c-3.5,0-6,2.2-6.7,5.8H183.8z"/>
	<path class="st0" d="M197.4,35.4c0,0,3.1,3.1,7.6,3.1c2,0,3.7-0.9,3.7-2.5c0-4.1-13.5-3.6-13.5-12.6c0-5.2,4.6-8.2,10.6-8.2
		c6.3,0,9.3,3.2,9.3,3.2l-2.6,5.1c0,0-2.6-2.4-6.8-2.4c-1.8,0-3.5,0.8-3.5,2.5c0,3.9,13.5,3.4,13.5,12.4c0,4.6-4,8.4-10.6,8.4
		c-6.9,0-10.8-4.1-10.8-4.1L197.4,35.4z"/>
	<path class="st0" d="M221.8,0.7h16.6c8.1,0,13.7,5.6,13.7,14s-5.6,14.2-13.7,14.2h-8.8v14.8h-7.8V0.7z M236.9,22.1
		c4.5,0,7.2-2.9,7.2-7.4c0-4.4-2.7-7.3-7.1-7.3h-7.4v14.7H236.9z"/>
	<path class="st0" d="M268.1,15.2c8.5,0,15.3,6.1,15.3,14.6c0,8.6-6.8,14.6-15.3,14.6c-8.5,0-15.3-6-15.3-14.6
		C252.8,21.3,259.7,15.2,268.1,15.2 M268.2,38.5c4.5,0,8.2-3.5,8.2-8.7c0-5.1-3.8-8.7-8.2-8.7c-4.5,0-8.3,3.5-8.3,8.7
		C259.9,35,263.6,38.5,268.2,38.5"/>
	<path class="st0" d="M1.3,57.7h2.9L7.1,65c0.3,0.9,0.8,2.2,0.8,2.2h0c0,0,0.4-1.3,0.7-2.2l2.9-7.4h2.9l1.2,14.9h-2.7l-0.6-8.3
		c-0.1-1,0-2.3,0-2.3h0c0,0-0.4,1.4-0.8,2.3L9,70H6.7l-2.4-5.8c-0.4-0.9-0.8-2.3-0.8-2.3h0c0,0,0,1.3,0,2.3l-0.6,8.3H0L1.3,57.7z"/>
	<path class="st0" d="M18.9,57.7h8.9V60h-6.2v3.9h5v2.3h-5v4h6.6v2.3h-9.3C18.9,72.6,18.9,57.7,18.9,57.7z M24.1,53.8h2.8l-2.2,2.9
		h-2.1L24.1,53.8z"/>
	<path class="st0" d="M31,57.7h5.1c4.6,0,7.6,2.7,7.6,7.4c0,4.7-3,7.5-7.6,7.5H31V57.7z M36,70.3c3,0,5-1.8,5-5.1c0-3.3-2-5.1-5-5.1
		h-2.2v10.2L36,70.3L36,70.3z"/>
	<rect x="46.5" y="57.7" class="st0" width="2.7" height="14.9"/>
	<path class="st0" d="M60.4,68.8h-5.2l-1.3,3.8h-2.8l5.2-14.9h2.8l5.2,14.9h-2.8L60.4,68.8z M57.8,60.3c0,0-0.3,1.5-0.6,2.3l-1.3,4
		h3.9l-1.3-4C58.2,61.7,57.9,60.3,57.8,60.3L57.8,60.3z"/>
	<polygon class="st0" points="66.4,57.7 69.1,57.7 69.1,70.3 75.6,70.3 75.6,72.6 66.4,72.6 	"/>
	<path class="st0" d="M85.6,68.8h-5.2l-1.3,3.8h-2.8l5.2-14.9h2.8l5.2,14.9h-2.8L85.6,68.8z M83,60.3c0,0-0.3,1.5-0.6,2.3l-1.3,4
		h3.9l-1.3-4C83.3,61.7,83,60.3,83,60.3L83,60.3z"/>
	<path class="st0" d="M91.6,57.7h5.3c2.7,0,4.6,1.4,4.6,3.8c0,1.4-0.7,2.6-1.8,3.2v0c1.6,0.5,2.4,2,2.4,3.5c0,3-2.4,4.3-5.1,4.3
		h-5.4L91.6,57.7L91.6,57.7z M96.9,63.8c1.2,0,1.8-0.8,1.8-1.9S98.1,60,96.9,60h-2.6v3.8H96.9z M97.2,70.3c1.4,0,2.2-0.9,2.2-2.2
		c0-1.2-0.8-2.1-2.2-2.1h-2.9v4.3H97.2z"/>
</g>
</svg>
