<svg id="Calque_1" xmlns="http://www.w3.org/2000/svg" viewBox="40 30 300 100">
  <style>
    .st0{fill:#e6142d}
  </style>
  <path class="st0" d="M46.7 75.7s4.7 4.5 10.7 4.5c3.3 0 6.2-1.7 6.2-5.2 0-7.7-20.3-6.4-20.3-19.6 0-7.1 6.2-12.5 14.4-12.5 8.5 0 12.8 4.6 12.8 4.6L67.2 54s-4.1-3.8-9.5-3.8c-3.6 0-6.5 2.1-6.5 5.1 0 7.6 20.2 5.8 20.2 19.5 0 6.8-5.2 12.6-14.2 12.6-9.6 0-14.8-5.9-14.8-5.9l4.3-5.8zM89.6 58.2c7.3 0 10.7 4.1 10.7 4.1L97.2 67s-2.9-3-7.3-3c-5.1 0-8.5 3.9-8.5 8.6 0 4.7 3.4 8.7 8.7 8.7 4.7 0 8.2-3.5 8.2-3.5l2.7 4.9s-4 4.5-11.5 4.5c-9.2 0-15.1-6.5-15.1-14.6 0-7.7 5.9-14.4 15.2-14.4M105.1 48h6.9v6.2h-6.9V48zm0 10.9h6.9v27.8h-6.9V58.9zM130.8 58.2c8 0 12.3 5.8 12.3 13.2 0 .8-.2 2.7-.2 2.7h-19.2c.4 4.9 4.2 7.4 8.4 7.4 4.5 0 8-3.1 8-3.1l2.7 5s-4.3 4-11.2 4c-9.2 0-15-6.7-15-14.6 0-8.6 5.9-14.6 14.2-14.6m5.3 11.2c-.1-3.8-2.5-5.8-5.5-5.8-3.5 0-6 2.2-6.7 5.8h12.2zM147.8 58.9h6.7v3.2c0 1-.1 1.9-.1 1.9h.1c1.2-2.3 4.3-5.8 9.9-5.8 6.2 0 9.7 3.2 9.7 10.6v17.9h-6.9V70.2c0-3.4-.9-5.7-4.4-5.7-3.7 0-6.4 2.3-7.5 5.7-.4 1.1-.5 2.4-.5 3.7v12.8h-6.9V58.9zM193.2 58.2c7.3 0 10.7 4.1 10.7 4.1l-3.1 4.7s-2.9-3-7.3-3c-5.1 0-8.5 3.9-8.5 8.6 0 4.7 3.4 8.7 8.7 8.7 4.7 0 8.2-3.5 8.2-3.5l2.7 4.9s-4 4.5-11.5 4.5c-9.2 0-15.1-6.5-15.1-14.6.1-7.7 6-14.4 15.2-14.4M221 58.2c8 0 12.3 5.8 12.3 13.2 0 .8-.2 2.7-.2 2.7h-19.2c.4 4.9 4.2 7.4 8.4 7.4 4.5 0 8-3.1 8-3.1l2.7 5s-4.3 4-11.2 4c-9.2 0-15-6.7-15-14.6 0-8.6 5.9-14.6 14.2-14.6m5.3 11.2c-.1-3.8-2.5-5.8-5.5-5.8-3.5 0-6 2.2-6.7 5.8h12.2zM239.9 78.4s3.1 3.1 7.6 3.1c2 0 3.7-.9 3.7-2.5 0-4.1-13.5-3.6-13.5-12.6 0-5.2 4.6-8.2 10.6-8.2 6.3 0 9.3 3.2 9.3 3.2l-2.6 5.1s-2.6-2.4-6.8-2.4c-1.8 0-3.5.8-3.5 2.5 0 3.9 13.5 3.4 13.5 12.4 0 4.6-4 8.4-10.6 8.4-6.9 0-10.8-4.1-10.8-4.1l3.1-4.9zM264.3 43.7h16.6c8.1 0 13.7 5.6 13.7 14s-5.6 14.2-13.7 14.2h-8.8v14.8h-7.8v-43zm15.1 21.4c4.5 0 7.2-2.9 7.2-7.4 0-4.4-2.7-7.3-7.1-7.3h-7.4v14.7h7.3zM310.6 58.2c8.5 0 15.3 6.1 15.3 14.6 0 8.6-6.8 14.6-15.3 14.6s-15.3-6-15.3-14.6c0-8.5 6.8-14.6 15.3-14.6m.1 23.3c4.5 0 8.2-3.5 8.2-8.7 0-5.1-3.8-8.7-8.2-8.7-4.5 0-8.3 3.5-8.3 8.7 0 5.2 3.7 8.7 8.3 8.7"/>
  <g>
    <path class="st0" d="M43.7 100.9h5.1c4.6 0 7.6 2.7 7.6 7.4s-3 7.5-7.6 7.5h-5.1v-14.9zm4.9 12.6c3 0 5-1.8 5-5.1s-2-5.1-5-5.1h-2.2v10.2h2.2zM59.2 100.9h2.7v14.9h-2.7v-14.9zM66.4 100.9h2.9l2.9 7.4c.3.9.8 2.2.8 2.2s.4-1.3.7-2.2l2.9-7.4h2.9l1.2 14.9H78l-.6-8.3c-.1-1 0-2.3 0-2.3s-.4 1.4-.8 2.3l-2.4 5.8h-2.4l-2.4-5.8c-.4-.9-.8-2.3-.8-2.3v2.3l-.6 8.3h-2.7l1.1-14.9zM84.1 100.9H93v2.3h-6.2v3.9h5v2.3h-5v4h6.6v2.3h-9.3v-14.8zM95.4 108.7h6.3v2.3h-6.3v-2.3zM105 112s1.6 1.6 3.7 1.6c1.1 0 2.2-.6 2.2-1.8 0-2.7-7-2.2-7-6.8 0-2.5 2.1-4.3 5-4.3s4.5 1.6 4.5 1.6l-1.2 2.2s-1.4-1.3-3.3-1.3c-1.3 0-2.2.7-2.2 1.8 0 2.6 7 2 7 6.8 0 2.4-1.8 4.4-4.9 4.4-3.3 0-5.1-2-5.1-2l1.3-2.2zM116.3 100.9h2.7v6.3h6.8v-6.3h2.7v14.9h-2.7v-6.3H119v6.3h-2.7v-14.9zM132.7 112s1.6 1.6 3.7 1.6c1.1 0 2.2-.6 2.2-1.8 0-2.7-7-2.2-7-6.8 0-2.5 2.1-4.3 5-4.3s4.5 1.6 4.5 1.6l-1.2 2.2s-1.4-1.3-3.3-1.3c-1.3 0-2.2.7-2.2 1.8 0 2.6 7 2 7 6.8 0 2.4-1.8 4.4-4.9 4.4-3.3 0-5.1-2-5.1-2l1.3-2.2z"/>
  </g>
</svg>
